<svg width="194" height="56" viewBox="0 0 194 56" fill="none" xmlns="http://www.w3.org/2000/svg">
<rect width="194" height="56" rx="28" fill="white"/>
<path d="M44.384 25.883C45.6809 26.6594 45.6809 28.5384 44.384 29.3148L30.0274 37.9106C28.6943 38.7088 27 37.7485 27 36.1947L27 19.0031C27 17.4493 28.6943 16.489 30.0274 17.2871L44.384 25.883Z" fill="#B2BCC8"/>
<path d="M68.6332 25.0989L68.5832 18.2739C68.5832 18.1739 68.6582 18.0989 68.7582 18.0989H71.5082C71.6082 18.0989 71.6832 18.1739 71.6832 18.2739L71.6082 26.8989L71.6832 35.4239C71.6832 35.5239 71.6082 35.5989 71.5082 35.5989H68.7582C68.6582 35.5989 68.5832 35.5239 68.5832 35.4239L68.6332 27.3739H60.1832L60.2332 35.4239C60.2332 35.5239 60.1582 35.5989 60.0582 35.5989H57.3082C57.2082 35.5989 57.1332 35.5239 57.1332 35.4239L57.1832 26.8989L57.1332 18.2739C57.1332 18.1739 57.2082 18.0989 57.3082 18.0989H60.0582C60.1582 18.0989 60.2332 18.1739 60.2332 18.2739L60.1832 25.0989H68.6332Z" fill="#B2BCC8"/>
<path d="M82.3803 24.3989L82.3053 22.8989C82.3053 22.7989 82.3803 22.7239 82.4803 22.7239H85.1553C85.2553 22.7239 85.3303 22.7989 85.3303 22.8989L85.2803 29.0989L85.3303 35.4239C85.3303 35.5239 85.2553 35.5989 85.1553 35.5989H82.5053C82.4053 35.5989 82.3303 35.5239 82.3303 35.4239L82.3803 33.8239C81.5053 35.0989 80.1553 35.8489 78.4053 35.8489C74.8553 35.8489 72.9803 32.9489 72.9803 29.1989C72.9803 25.4739 75.0303 22.4739 78.4803 22.4739C80.1803 22.4739 81.5053 23.1489 82.3803 24.3989ZM79.2303 33.7989C81.2553 33.7989 82.4303 32.2739 82.4553 29.2739C82.4803 26.2239 81.3303 24.5239 79.2803 24.4989C77.1053 24.4739 76.0303 26.2239 76.0303 29.0239C76.0303 31.9989 77.1053 33.8239 79.2303 33.7989Z" fill="#B2BCC8"/>
<path d="M101.192 29.2739L101.167 22.8989C101.167 22.7989 101.242 22.7239 101.342 22.7239H104.042C104.142 22.7239 104.217 22.7989 104.217 22.8989L104.167 29.2739L104.217 35.4239C104.217 35.5239 104.142 35.5989 104.042 35.5989H87.0168C86.9168 35.5989 86.8418 35.5239 86.8418 35.4239L86.8918 29.2739L86.8418 22.8989C86.8418 22.7989 86.9168 22.7239 87.0168 22.7239H89.7168C89.8168 22.7239 89.8918 22.7989 89.8918 22.8989L89.8418 29.2739L89.8668 33.4489H94.0168L94.0418 29.2739L93.9918 22.8989C93.9918 22.7989 94.0668 22.7239 94.1668 22.7239H96.8668C96.9668 22.7239 97.0418 22.7989 97.0418 22.8989L97.0168 29.2739L97.0418 33.4489H101.167L101.192 29.2739Z" fill="#B2BCC8"/>
<path d="M116.621 35.8989C112.571 35.8989 110.271 33.2739 110.271 29.1989C110.271 25.1239 112.571 22.4239 116.621 22.4239C120.696 22.4239 122.971 25.0739 122.971 29.1489C122.971 33.1989 120.696 35.8989 116.621 35.8989ZM116.621 33.8739C118.821 33.8739 119.871 32.2989 119.871 29.1989C119.871 26.1239 118.796 24.4489 116.621 24.4489C114.396 24.4739 113.321 26.1239 113.321 29.1989C113.321 32.2989 114.421 33.8739 116.621 33.8739Z" fill="#B2BCC8"/>
<path d="M140.654 29.1489C140.654 32.8989 138.654 35.5989 133.754 35.8489L133.779 39.6739C133.779 39.7739 133.704 39.8489 133.604 39.8489H130.979C130.879 39.8489 130.804 39.7739 130.804 39.6739L130.829 35.8489C126.004 35.5989 123.979 32.9239 123.979 29.1989C123.979 25.4739 126.029 22.7239 130.829 22.4739L130.804 18.2739C130.804 18.1739 130.879 18.0989 130.979 18.0989H133.604C133.704 18.0989 133.779 18.1739 133.779 18.2739L133.754 22.4739C138.829 22.6989 140.654 25.3739 140.654 29.1489ZM126.979 29.1989C126.979 31.9489 127.929 33.6239 130.854 33.8739L130.879 28.6489L130.854 24.4489C128.104 24.7239 126.979 26.4489 126.979 29.1989ZM133.754 24.4489L133.729 28.5739L133.754 33.8739C136.629 33.6239 137.654 31.8489 137.654 29.1989C137.654 26.4239 136.504 24.7239 133.754 24.4489Z" fill="#B2BCC8"/>
<path d="M144.77 32.3239L150.02 22.8489C150.07 22.7489 150.17 22.7239 150.245 22.7239H153.395C153.495 22.7239 153.57 22.7989 153.57 22.8989L153.52 29.0489L153.57 35.4239C153.57 35.5239 153.495 35.5989 153.395 35.5989H150.745C150.645 35.5989 150.57 35.5239 150.57 35.4239L150.62 29.0489L150.67 26.0739L145.445 35.4739C145.395 35.5739 145.295 35.5989 145.22 35.5989H142.02C141.92 35.5989 141.845 35.5239 141.845 35.4239L141.895 28.8739L141.845 22.8989C141.845 22.7989 141.92 22.7239 142.02 22.7239H144.695C144.795 22.7239 144.87 22.7989 144.87 22.8989L144.82 29.0739L144.77 32.3239Z" fill="#B2BCC8"/>
<path d="M161.039 35.8989C157.064 35.8989 154.764 33.2739 154.764 29.1989C154.764 25.1239 157.064 22.4239 161.114 22.4239C164.364 22.4239 166.414 24.2739 166.689 27.0489C166.714 27.1489 166.639 27.2239 166.539 27.2239H164.089C163.989 27.2239 163.939 27.1739 163.914 27.0489C163.614 25.3739 162.564 24.4739 161.114 24.4739C158.889 24.4989 157.839 26.1239 157.839 29.1739C157.839 32.2989 158.889 33.8489 161.114 33.8739C162.764 33.8989 163.839 32.7989 164.014 30.8989C164.039 30.7739 164.114 30.7239 164.214 30.7239H166.714C166.814 30.7239 166.889 30.7739 166.889 30.8739C166.639 33.7989 164.414 35.8989 161.039 35.8989Z" fill="#B2BCC8"/>
</svg>
