<svg width="100" height="100" viewBox="0 0 100 100" fill="none" xmlns="http://www.w3.org/2000/svg">
<rect width="100" height="100" rx="13" fill="#4386D6"/>
<path fill-rule="evenodd" clip-rule="evenodd" d="M76.0935 32C76.0259 32 75.9589 32.0027 75.8926 32.0079L75.1839 32.005C74.5642 32.0025 74.0184 32.385 73.7989 32.9757L69.9919 43.2239C69.9127 43.4371 69.7089 43.5785 69.4811 43.5785C69.1802 43.5785 68.9363 43.3352 68.9363 43.0351V34.5087C68.9363 33.1232 67.8104 32 66.4216 32C66.3988 32 66.376 32.0003 66.3532 32.0009C66.3305 32.0003 66.3077 32 66.2848 32L55.2022 32C54.855 32 54.5243 32.0702 54.2234 32.1971C54.073 32.2606 53.93 32.3383 53.7962 32.4284C53.1273 32.8793 52.6875 33.6427 52.6875 34.5087V41.7427C52.6875 42.7566 51.8636 43.5785 50.8473 43.5785H50.6726C50.5093 43.5785 50.3481 43.5416 50.2011 43.4705C49.8289 43.2903 49.5925 42.9138 49.5925 42.5011V34.5087C49.5925 33.2746 48.6994 32.2487 47.5228 32.0391C47.3784 32.0134 47.2297 32 47.0779 32L16.5032 32C15.1207 32 14 33.1181 14 34.4973C14 35.8748 15.1182 36.9922 16.4991 36.9945L20.9543 37.0019C21.3146 37.0025 21.4857 37.4449 21.2192 37.6868C21.1465 37.7527 21.0519 37.7893 20.9536 37.7893H18.4491C17.0602 37.7893 15.9344 38.9124 15.9344 40.298C15.9344 41.6835 17.0602 42.8066 18.4491 42.8066H20.8376C20.9339 42.8066 21.0267 42.8425 21.0979 42.9071C21.3594 43.1445 21.1911 43.5785 20.8376 43.5785H16.5147C15.1259 43.5785 14 44.7017 14 46.0872C14 47.4727 15.1259 48.5959 16.5147 48.5959H27.7341C29.1229 48.5959 30.2488 47.4727 30.2488 46.0872C30.2488 45.3925 29.9657 44.7638 29.5084 44.3095C29.4477 44.2391 29.3818 44.1715 29.3108 44.1071C29.1606 43.9707 29.0781 43.7858 29.048 43.5785C28.9712 43.0495 29.2358 42.3755 29.5866 41.9945C29.9978 41.5479 30.2488 40.9522 30.2488 40.298C30.2488 39.3445 29.7156 38.5152 28.9304 38.0908C28.5929 37.9084 28.4369 37.3901 28.7208 37.1324C28.8024 37.0584 28.9086 37.0174 29.0189 37.0174H30.1017C31.8923 37.0174 33.3438 38.4654 33.3438 40.2517V46.0872C33.3438 47.4727 34.4696 48.5959 35.8585 48.5959C37.2473 48.5959 38.3732 47.4727 38.3732 46.0872C38.3732 44.806 39.717 43.9663 40.8725 44.5256L42.9531 45.5327C43.6045 45.848 44.0747 46.4251 44.5447 47.002C44.8002 47.3157 45.0557 47.6293 45.3402 47.9007C45.7368 48.279 46.2574 48.5291 46.8349 48.5844C46.9149 48.592 46.9959 48.5959 47.0779 48.5959H54.8154H55.2022C56.5911 48.5959 57.7169 47.4727 57.7169 46.0872V40.105C57.7169 38.3997 59.1026 37.0174 60.8119 37.0174C62.5212 37.0174 63.9069 38.3997 63.9069 40.105V46.0872C63.9069 47.4727 65.0328 48.5959 66.4216 48.5959H67.2419C67.8034 48.5959 68.4235 48.6554 69.0526 48.7158C71.0573 48.9082 73.1535 49.1094 73.7354 47.4215L76.8035 38.5221C77.1139 37.6218 77.963 37.0174 78.9173 37.0174C79.8506 37.0174 80.6856 37.5958 81.0117 38.4682L84.2918 47.243C84.5989 48.0648 85.3579 48.5978 86.2207 48.5978H87.0753C88.3873 48.5978 89.3345 47.2208 88.8881 45.9624L87.1237 40.9886C86.6802 39.5653 86.4691 38.7769 86.1697 37.6587C86.068 37.2788 85.9561 36.8609 85.8214 36.3671C85.1609 33.7969 82.844 32.0001 80.1903 32.0001L76.0935 32ZM42.498 39.7419L38.626 37.8677C38.4713 37.7928 38.3732 37.6364 38.3732 37.465C38.3732 37.2178 38.574 37.0174 38.8218 37.0174L43.1255 37.0174C43.9195 37.0174 44.5632 37.6595 44.5632 38.4516C44.5632 39.5102 43.4528 40.204 42.498 39.7419ZM19.4163 57.2884H27.7341C29.1229 57.2884 30.2488 56.1652 30.2488 54.7797C30.2488 53.3942 29.1229 52.271 27.7341 52.271L14 52.271V60.2662V66.3582C14 66.4356 14.0035 66.5122 14.0104 66.5878C14.0047 67.8448 15.0246 68.8669 16.2847 68.8669H40.8878C42.704 68.8669 44.1763 67.3981 44.1763 65.5863V63.0776C44.1763 59.8803 46.7744 57.2884 49.9794 57.2884C51.6887 57.2884 53.0744 58.6708 53.0744 60.376V66.3582C53.0744 67.7437 54.2003 68.8669 55.5891 68.8669C56.9779 68.8669 58.1038 67.7437 58.1038 66.3582C58.1038 64.9742 59.5554 64.0672 60.8036 64.6714L62.5512 65.5173C63.2487 65.8549 63.7304 66.4964 64.2115 67.137C64.4657 67.4755 64.7197 67.8138 65.0053 68.1068C65.4622 68.5756 66.1012 68.8669 66.8085 68.8669C66.8626 68.8669 66.9162 68.8652 66.9694 68.8619C67.0226 68.8652 67.0763 68.8669 67.1304 68.8669H74.8704C76.2578 68.8669 77.3826 67.7424 77.3826 66.3582C77.3826 65.6122 77.9888 65.0074 78.7366 65.0074H82.7989C83.6535 65.0074 84.3463 65.6986 84.3463 66.5512C84.3463 67.8301 85.3856 68.8669 86.6676 68.8669C87.9496 68.8669 88.9889 67.8301 88.9889 66.5512V62.3057C88.9889 61.0268 87.9496 59.99 86.6676 59.99C86.6358 59.99 86.6043 59.9907 86.5728 59.9919C86.5401 59.9907 86.5072 59.99 86.4742 59.99C85.4625 59.99 85.0665 58.6802 85.9094 58.1222L87.8972 56.8061C89.0544 56.04 89.3264 54.5135 88.5047 53.3964C87.6831 52.2794 86.0789 51.995 84.9217 52.7611L80.362 55.7798C79.0868 56.6241 77.3826 55.7119 77.3826 54.185C77.3826 53.1279 76.5236 52.271 75.464 52.271H74.8679C73.4791 52.271 72.3532 53.3942 72.3532 54.7797V62.4987C72.3532 63.2448 71.747 63.8496 70.9991 63.8496H70.9392C70.7254 63.8496 70.5144 63.8012 70.322 63.7081L70.2678 63.6818C69.69 63.4022 69.3232 62.8178 69.3232 62.1772V54.7797C69.3232 53.3942 68.1973 52.271 66.8085 52.271L35.8585 52.271C34.4696 52.271 33.3438 53.3942 33.3438 54.7797C33.3438 56.1652 34.4696 57.2884 35.8585 57.2884H36.2453C37.8478 57.2884 39.1469 58.5844 39.1469 60.183V60.569C39.1469 62.3808 37.6746 63.8496 35.8585 63.8496H19.4163C19.2026 63.8496 19.0294 63.6768 19.0294 63.4636C19.0294 63.2504 19.2026 63.0777 19.4163 63.0777L21.5441 63.0777C22.9329 63.0777 24.0588 61.9545 24.0588 60.569C24.0588 59.1835 22.9329 58.0603 21.5441 58.0603H19.4163C19.2026 58.0603 19.0294 57.8875 19.0294 57.6743C19.0294 57.4612 19.2026 57.2884 19.4163 57.2884ZM58.2794 57.879L62.3519 59.8503C63.2497 60.2848 64.2938 59.6324 64.2938 58.637C64.2938 57.8922 63.6886 57.2884 62.942 57.2884H58.4154C58.2433 57.2884 58.1038 57.4276 58.1038 57.5993C58.1038 57.7184 58.172 57.827 58.2794 57.879Z" fill="white"/>
</svg>
