<svg width="172" height="291" viewBox="0 0 172 291" fill="none" xmlns="http://www.w3.org/2000/svg">
<rect width="172" height="291" fill="white"/>
<path fill-rule="evenodd" clip-rule="evenodd" d="M97.1816 229C97.1563 229 97.1313 229.001 97.1066 229.003L96.842 229.002C96.6106 229.001 96.4069 229.144 96.3249 229.364L94.9036 233.19C94.8741 233.27 94.798 233.323 94.7129 233.323C94.6006 233.323 94.5096 233.232 94.5096 233.12V229.937C94.5096 229.419 94.0892 229 93.5707 229C93.5622 229 93.5537 229 93.5452 229C93.5367 229 93.5282 229 93.5197 229L89.3822 229C89.2525 229 89.1291 229.026 89.0167 229.074C88.9606 229.097 88.9072 229.126 88.8573 229.16C88.6075 229.328 88.4433 229.613 88.4433 229.937V232.637C88.4433 233.016 88.1358 233.323 87.7563 233.323H87.6911C87.6301 233.323 87.5699 233.309 87.5151 233.282C87.3761 233.215 87.2879 233.074 87.2879 232.92V229.937C87.2879 229.476 86.9544 229.093 86.5152 229.015C86.4613 229.005 86.4057 229 86.3491 229L74.9345 229C74.4184 229 74 229.417 74 229.932C74 230.447 74.4175 230.864 74.933 230.865L76.5963 230.867C76.7308 230.868 76.7947 231.033 76.6952 231.123C76.668 231.148 76.6327 231.161 76.596 231.161H75.661C75.1425 231.161 74.7222 231.581 74.7222 232.098C74.7222 232.615 75.1425 233.034 75.661 233.034H76.5527C76.5886 233.034 76.6233 233.048 76.6499 233.072C76.7475 233.161 76.6847 233.323 76.5527 233.323H74.9388C74.4203 233.323 74 233.742 74 234.259C74 234.776 74.4203 235.196 74.9388 235.196H79.1274C79.6459 235.196 80.0662 234.776 80.0662 234.259C80.0662 234 79.9605 233.765 79.7898 233.596C79.7671 233.569 79.7425 233.544 79.716 233.52C79.66 233.469 79.6292 233.4 79.6179 233.323C79.5892 233.125 79.688 232.874 79.819 232.731C79.9725 232.565 80.0662 232.342 80.0662 232.098C80.0662 231.742 79.8671 231.432 79.574 231.274C79.448 231.206 79.3898 231.012 79.4958 230.916C79.5262 230.888 79.5659 230.873 79.6071 230.873H80.0113C80.6798 230.873 81.2217 231.414 81.2217 232.081V234.259C81.2217 234.776 81.642 235.196 82.1605 235.196C82.679 235.196 83.0993 234.776 83.0993 234.259C83.0993 233.781 83.601 233.467 84.0324 233.676L84.8092 234.052C85.0524 234.17 85.2279 234.385 85.4033 234.601C85.4987 234.718 85.5941 234.835 85.7004 234.936C85.8484 235.077 86.0427 235.171 86.2584 235.191C86.2882 235.194 86.3185 235.196 86.3491 235.196H89.2377H89.3822C89.9007 235.196 90.321 234.776 90.321 234.259V232.026C90.321 231.389 90.8383 230.873 91.4764 230.873C92.1146 230.873 92.6319 231.389 92.6319 232.026V234.259C92.6319 234.776 93.0522 235.196 93.5707 235.196H93.877C94.0866 235.196 94.3181 235.218 94.553 235.241C95.3014 235.312 96.084 235.388 96.3012 234.757L97.4466 231.435C97.5625 231.099 97.8795 230.873 98.2358 230.873C98.5842 230.873 98.896 231.089 99.0177 231.415L100.242 234.691C100.357 234.998 100.64 235.197 100.962 235.197H101.281C101.771 235.197 102.125 234.682 101.958 234.213L101.3 232.356C101.134 231.824 101.055 231.53 100.943 231.113C100.905 230.971 100.864 230.815 100.813 230.63C100.567 229.671 99.7018 229 98.711 229L97.1816 229ZM84.6392 231.89L83.1937 231.191C83.136 231.163 83.0993 231.104 83.0993 231.04C83.0993 230.948 83.1743 230.873 83.2668 230.873L84.8735 230.873C85.17 230.873 85.4102 231.113 85.4102 231.409C85.4102 231.804 84.9957 232.063 84.6392 231.89ZM76.0221 238.441H79.1274C79.6459 238.441 80.0662 238.022 80.0662 237.504C80.0662 236.987 79.6459 236.568 79.1274 236.568L74 236.568V239.553V241.827C74 241.856 74.0013 241.885 74.0039 241.913C74.0017 242.382 74.3825 242.764 74.8529 242.764L84.0381 242.764C84.7162 242.764 85.2658 242.215 85.2658 241.539V240.602C85.2658 239.409 86.2358 238.441 87.4323 238.441C88.0705 238.441 88.5878 238.957 88.5878 239.594V241.827C88.5878 242.344 89.0081 242.764 89.5266 242.764C90.0451 242.764 90.4654 242.344 90.4654 241.827C90.4654 241.31 91.0074 240.972 91.4734 241.197L92.1258 241.513C92.3862 241.639 92.566 241.879 92.7456 242.118L92.7456 242.118C92.8405 242.244 92.9354 242.37 93.042 242.48C93.2125 242.655 93.4511 242.764 93.7152 242.764C93.7354 242.764 93.7554 242.763 93.7753 242.762C93.7951 242.763 93.8152 242.764 93.8353 242.764H96.7249C97.2429 242.764 97.6628 242.344 97.6628 241.827C97.6628 241.549 97.8892 241.323 98.1683 241.323H99.6849C100.004 241.323 100.263 241.581 100.263 241.899C100.263 242.377 100.651 242.764 101.129 242.764C101.608 242.764 101.996 242.377 101.996 241.899V240.314C101.996 239.837 101.608 239.45 101.129 239.45C101.117 239.45 101.106 239.45 101.094 239.45C101.082 239.45 101.069 239.45 101.057 239.45C100.679 239.45 100.531 238.961 100.846 238.752L101.588 238.261C102.02 237.975 102.122 237.405 101.815 236.988C101.508 236.571 100.909 236.465 100.477 236.751L98.7752 237.878C98.2991 238.193 97.6628 237.852 97.6628 237.282C97.6628 236.888 97.3421 236.568 96.9466 236.568H96.724C96.2055 236.568 95.7852 236.987 95.7852 237.504V240.386C95.7852 240.665 95.5589 240.891 95.2797 240.891H95.2573C95.1775 240.891 95.0987 240.872 95.0269 240.838L95.0066 240.828C94.7909 240.723 94.654 240.505 94.654 240.266V237.504C94.654 236.987 94.2337 236.568 93.7152 236.568L82.1605 236.568C81.642 236.568 81.2217 236.987 81.2217 237.504C81.2217 238.022 81.642 238.441 82.1605 238.441H82.3049C82.9032 238.441 83.3882 238.925 83.3882 239.522V239.666C83.3882 240.342 82.8385 240.891 82.1605 240.891H76.0221C75.9423 240.891 75.8776 240.826 75.8776 240.746C75.8776 240.667 75.9423 240.602 76.0221 240.602L76.8165 240.602C77.3349 240.602 77.7553 240.183 77.7553 239.666C77.7553 239.148 77.3349 238.729 76.8165 238.729H76.0221C75.9423 238.729 75.8776 238.665 75.8776 238.585C75.8776 238.506 75.9423 238.441 76.0221 238.441ZM90.531 238.662L92.0514 239.397C92.3866 239.56 92.7764 239.316 92.7764 238.944C92.7764 238.666 92.5504 238.441 92.2717 238.441L90.5818 238.441C90.5175 238.441 90.4654 238.493 90.4654 238.557C90.4654 238.602 90.4909 238.642 90.531 238.662Z" fill="black"/>
<path d="M43.4147 76.1C43.2947 76.1 43.2347 76.01 43.2647 75.89L44.9747 71.06L38.8547 55.76C38.7947 55.61 38.8547 55.55 38.9747 55.55H41.7347C41.8247 55.55 41.9147 55.58 41.9447 55.7L46.3247 67.46L50.0447 55.7C50.0747 55.58 50.1647 55.55 50.2547 55.55H52.7147C52.8347 55.55 52.8947 55.64 52.8647 55.76L45.8747 75.95C45.8447 76.07 45.7547 76.1 45.6647 76.1H43.4147ZM53.8627 55.73C53.8627 55.61 53.9227 55.55 54.0427 55.55H66.4027C66.5227 55.55 66.5827 55.61 66.5827 55.73L66.5227 63.02L66.5827 70.82C66.5827 70.94 66.5227 71 66.4027 71H63.9727C63.8527 71 63.7927 70.94 63.7927 70.82L63.8227 63.02L63.7927 57.56H56.6227L56.5927 63.02L56.6527 70.82C56.6527 70.94 56.5927 71 56.4727 71H54.0427C53.9227 71 53.8627 70.94 53.8627 70.82L53.8927 63.02L53.8627 55.73ZM75.3345 71.36C70.7145 71.36 68.1045 68.18 68.1045 63.32C68.1045 58.46 70.7145 55.19 75.3945 55.19C79.2645 55.19 81.6045 57.41 81.9045 60.71C81.9345 60.83 81.8745 60.89 81.7545 60.89H79.5645C79.4745 60.89 79.3845 60.83 79.3545 60.71C78.9945 58.43 77.5845 57.11 75.3945 57.11C72.3645 57.14 70.9245 59.42 70.9245 63.29C70.9245 67.25 72.3645 69.44 75.3945 69.44C77.8245 69.47 79.2945 67.91 79.5345 65.39C79.5345 65.27 79.6245 65.21 79.7145 65.21H81.9345C82.0545 65.21 82.1145 65.27 82.1145 65.36C81.8145 68.84 79.3545 71.36 75.3345 71.36ZM85.7669 67.97C85.8869 67.97 85.9469 68.03 85.9469 68.15V70.82C85.9469 70.91 85.8869 71 85.7669 71H83.0969C83.0069 71 82.9169 70.94 82.9169 70.82V68.15C82.9169 68.06 82.9769 67.97 83.0969 67.97H85.7669ZM90.1755 67.97C90.2955 67.97 90.3555 68.03 90.3555 68.15V70.82C90.3555 70.91 90.2955 71 90.1755 71H87.5055C87.4155 71 87.3255 70.94 87.3255 70.82V68.15C87.3255 68.06 87.3855 67.97 87.5055 67.97H90.1755ZM94.5841 67.97C94.7041 67.97 94.7641 68.03 94.7641 68.15V70.82C94.7641 70.91 94.7041 71 94.5841 71H91.9141C91.8241 71 91.7341 70.94 91.7341 70.82V68.15C91.7341 68.06 91.7941 67.97 91.9141 67.97H94.5841ZM104.573 67.91L109.313 55.7C109.343 55.58 109.433 55.55 109.523 55.55H112.553C112.673 55.55 112.733 55.61 112.733 55.73L112.703 63.41L112.733 70.82C112.733 70.94 112.673 71 112.553 71H110.303C110.183 71 110.123 70.94 110.123 70.82V63.77L110.153 60.23L110.183 58.61L105.443 70.85C105.413 70.97 105.323 71 105.233 71H103.583C103.493 71 103.403 70.97 103.373 70.85L98.5727 58.49L98.6027 60.26L98.6327 63.77L98.6627 70.82C98.6627 70.94 98.6027 71 98.4827 71H96.6227C96.5027 71 96.4427 70.94 96.4427 70.82L96.4727 63.41L96.4427 55.73C96.4427 55.61 96.5027 55.55 96.6227 55.55H99.6527C99.7427 55.55 99.8327 55.58 99.8627 55.7L104.573 67.91ZM117.319 55.52C117.439 55.52 117.499 55.58 117.499 55.7L117.469 61.37H120.139C124.339 61.37 126.679 62.84 126.679 66.14C126.679 69.53 124.279 71 120.139 71H117.469V71.03H114.889C114.769 71.03 114.709 70.97 114.709 70.85L114.739 63.41L114.709 55.7C114.709 55.58 114.769 55.52 114.889 55.52H117.319ZM127.789 63.53L127.759 55.73C127.759 55.61 127.819 55.55 127.939 55.55H130.369C130.489 55.55 130.549 55.61 130.549 55.73L130.489 63.53L130.549 70.82C130.549 70.94 130.489 71 130.369 71H127.939C127.819 71 127.759 70.94 127.759 70.82L127.789 63.53ZM117.469 63.26V69.11H120.139C122.479 69.11 123.889 68.33 123.889 66.2C123.889 64.25 122.689 63.26 120.139 63.26H117.469ZM32.2959 82.25C36.4659 82.25 38.6859 85.73 38.6859 90.23C38.6859 94.7 36.3159 98.3 32.2359 98.3C30.1059 98.3 28.4559 97.4 27.4059 95.72L27.4659 102.92C27.4659 103.04 27.4059 103.1 27.2859 103.1H24.8559C24.7359 103.1 24.6759 103.04 24.6759 102.92L24.7359 91.22L24.6759 82.73C24.6759 82.61 24.7359 82.55 24.8559 82.55H27.2559C27.3759 82.55 27.4359 82.61 27.4359 82.73L27.3759 85.01C28.4259 83.3 30.1059 82.25 32.2959 82.25ZM31.5459 96.38C34.5159 96.38 35.8959 93.92 35.8959 90.44C35.8959 86.72 34.5159 84.17 31.6059 84.17C28.9359 84.17 27.3159 86.18 27.2859 90.14C27.2559 94.1 28.8159 96.38 31.5459 96.38ZM51.2238 84.89L51.1638 82.73C51.1638 82.61 51.2238 82.55 51.3438 82.55H53.7438C53.8638 82.55 53.9238 82.61 53.9238 82.73L53.8638 90.11L53.9238 97.82C53.9238 97.94 53.8638 98 53.7438 98H51.3438C51.2238 98 51.1638 97.94 51.1638 97.82L51.2238 95.57C50.2038 97.28 48.5238 98.3 46.3038 98.3C42.1338 98.3 39.9138 94.79 39.9138 90.32C39.9138 85.85 42.2838 82.25 46.3638 82.25C48.5238 82.25 50.2038 83.18 51.2238 84.89ZM46.9938 96.38C49.6638 96.38 51.2838 94.37 51.3138 90.41C51.3438 86.45 49.7838 84.17 47.0538 84.14C44.0838 84.11 42.7038 86.6 42.7038 90.11C42.7038 93.83 44.0838 96.41 46.9938 96.38ZM63.4952 83.21C67.6652 83.21 69.7652 86.45 69.7652 90.62C69.7652 95.27 67.0652 98.33 62.6552 98.33C57.9752 98.33 55.6352 94.82 55.6352 89C55.6352 82.67 57.4952 78.98 62.0552 77.99C63.8852 77.57 66.8552 77.42 68.8052 77C68.9552 77 69.0152 77.06 69.0152 77.18V78.98C69.0152 79.07 68.9552 79.13 68.8652 79.16C66.9452 79.58 64.0052 79.76 62.4152 80.12C59.2652 80.81 58.1852 83.24 57.9152 86.93C58.8152 84.68 60.6452 83.21 63.4952 83.21ZM62.6852 96.41C65.4152 96.41 66.9752 94.31 66.9752 90.8C66.9752 87.32 65.5052 85.13 62.8052 85.13C60.1652 85.13 58.4552 87.17 58.4552 90.8C58.4552 94.13 59.8952 96.41 62.6852 96.41ZM78.3466 98.36C73.6666 98.36 70.9966 95.18 70.9966 90.32C70.9966 85.43 73.6666 82.19 78.3466 82.19C83.0566 82.19 85.6666 85.4 85.6666 90.26C85.6666 95.12 83.0566 98.36 78.3466 98.36ZM78.3466 96.44C81.3766 96.44 82.8466 94.22 82.8466 90.32C82.8466 86.42 81.3466 84.11 78.3466 84.11C75.2866 84.11 73.7866 86.42 73.7866 90.32C73.7866 94.22 75.3166 96.44 78.3466 96.44ZM85.362 82.73C85.362 82.61 85.422 82.55 85.542 82.55H98.562C98.682 82.55 98.742 82.61 98.742 82.73V84.38C98.742 84.5 98.682 84.56 98.562 84.56H93.432L93.402 90.02L93.432 97.82C93.432 97.94 93.372 98 93.252 98H90.822C90.702 98 90.642 97.94 90.642 97.82L90.702 90.02L90.672 84.56H85.542C85.422 84.56 85.362 84.5 85.362 84.38V82.73ZM109.845 84.89L109.785 82.73C109.785 82.61 109.845 82.55 109.965 82.55H112.365C112.485 82.55 112.545 82.61 112.545 82.73L112.485 90.11L112.545 97.82C112.545 97.94 112.485 98 112.365 98H109.965C109.845 98 109.785 97.94 109.785 97.82L109.845 95.57C108.825 97.28 107.145 98.3 104.925 98.3C100.755 98.3 98.5345 94.79 98.5345 90.32C98.5345 85.85 100.905 82.25 104.985 82.25C107.145 82.25 108.825 83.18 109.845 84.89ZM105.615 96.38C108.285 96.38 109.905 94.37 109.935 90.41C109.965 86.45 108.405 84.17 105.675 84.14C102.705 84.11 101.325 86.6 101.325 90.11C101.325 93.83 102.705 96.41 105.615 96.38ZM121.486 96.44C123.766 96.44 125.146 95.15 125.596 92.78C125.626 92.69 125.716 92.63 125.806 92.63H128.086C128.206 92.63 128.266 92.69 128.236 92.81C127.786 96.02 125.446 98.36 121.456 98.36C116.656 98.36 114.076 95.03 114.076 90.32C114.076 85.49 116.836 82.19 121.306 82.19C125.806 82.19 128.446 85.31 128.506 90.44C128.506 90.56 128.446 90.62 128.326 90.62H116.806C116.896 94.43 118.456 96.44 121.486 96.44ZM121.336 84.08C118.786 84.08 117.286 85.79 116.896 88.76H125.536C125.446 86.21 124.066 84.08 121.336 84.08ZM138.168 94.91L142.908 82.7C142.938 82.58 143.028 82.55 143.118 82.55H146.148C146.268 82.55 146.328 82.61 146.328 82.73L146.298 90.41L146.328 97.82C146.328 97.94 146.268 98 146.148 98H143.898C143.778 98 143.718 97.94 143.718 97.82V90.77L143.748 87.23L143.778 85.61L139.038 97.85C139.008 97.97 138.918 98 138.828 98H137.178C137.088 98 136.998 97.97 136.968 97.85L132.168 85.49L132.198 87.26L132.228 90.77L132.258 97.82C132.258 97.94 132.198 98 132.078 98H130.218C130.098 98 130.038 97.94 130.038 97.82L130.068 90.41L130.038 82.73C130.038 82.61 130.098 82.55 130.218 82.55H133.248C133.338 82.55 133.428 82.58 133.458 82.7L138.168 94.91ZM42.5295 115.82L42.4995 109.73C42.4995 109.61 42.5595 109.55 42.6795 109.55H45.1095C45.2295 109.55 45.2895 109.61 45.2895 109.73L45.2295 117.02L45.2895 124.82C45.2895 124.94 45.2295 125 45.1095 125H42.6795C42.5595 125 42.4995 124.94 42.4995 124.82L42.5295 117.83H35.0595L35.1195 124.82C35.1195 124.94 35.0595 125 34.9395 125H32.5095C32.3895 125 32.3295 124.94 32.3295 124.82L32.3595 117.02L32.3295 109.73C32.3295 109.61 32.3895 109.55 32.5095 109.55H34.9395C35.0595 109.55 35.1195 109.61 35.1195 109.73L35.0595 115.82H42.5295ZM58.1156 111.89L58.0556 109.73C58.0556 109.61 58.1156 109.55 58.2356 109.55H60.6356C60.7556 109.55 60.8156 109.61 60.8156 109.73L60.7556 117.11L60.8156 124.82C60.8156 124.94 60.7556 125 60.6356 125H58.2356C58.1156 125 58.0556 124.94 58.0556 124.82L58.1156 122.57C57.0956 124.28 55.4156 125.3 53.1956 125.3C49.0256 125.3 46.8056 121.79 46.8056 117.32C46.8056 112.85 49.1756 109.25 53.2556 109.25C55.4156 109.25 57.0956 110.18 58.1156 111.89ZM53.8856 123.38C56.5556 123.38 58.1756 121.37 58.2056 117.41C58.2356 113.45 56.6756 111.17 53.9456 111.14C50.9756 111.11 49.5956 113.6 49.5956 117.11C49.5956 120.83 50.9756 123.41 53.8856 123.38ZM75.757 109.55C75.847 109.55 75.937 109.64 75.937 109.73L75.997 116.9L76.117 123.02H77.887C78.007 123.02 78.067 123.08 78.067 123.2V128.51C78.067 128.6 78.007 128.69 77.887 128.69H75.817C75.727 128.69 75.637 128.6 75.637 128.51L75.547 125H64.597L64.507 128.51C64.507 128.6 64.417 128.69 64.327 128.69H62.227C62.137 128.69 62.047 128.63 62.047 128.51V123.2C62.047 123.11 62.107 123.02 62.227 123.02H63.247C64.057 122.15 64.477 120.83 64.717 118.82C64.957 116.72 65.167 113.06 65.257 109.73C65.257 109.61 65.347 109.55 65.437 109.55H75.757ZM73.387 123.02L73.357 116.87L73.267 111.53H67.567C67.447 114.2 67.267 117.08 67.057 118.85C66.847 120.89 66.427 122 65.887 123.02H73.387ZM90.982 109.19C95.602 109.19 98.062 112.46 98.062 117.32C98.062 122.18 95.452 125.36 90.832 125.36C86.812 125.36 84.322 122.84 84.022 119.39C84.022 119.27 84.082 119.21 84.202 119.21H86.452C86.542 119.21 86.632 119.27 86.632 119.39C86.842 121.91 88.312 123.44 90.862 123.44C93.682 123.44 95.122 121.43 95.242 117.83H89.092C89.002 117.83 88.912 117.77 88.912 117.65V116.18C88.912 116.06 88.972 116 89.092 116H95.182C94.882 112.88 93.502 111.11 90.922 111.11C88.642 111.11 87.172 112.43 86.842 114.71C86.812 114.83 86.722 114.89 86.632 114.89H84.442C84.322 114.89 84.262 114.83 84.262 114.74C84.562 111.47 87.052 109.19 90.982 109.19ZM97.7463 109.73C97.7463 109.61 97.8063 109.55 97.9263 109.55H110.946C111.066 109.55 111.126 109.61 111.126 109.73V111.38C111.126 111.5 111.066 111.56 110.946 111.56H105.816L105.786 117.02L105.816 124.82C105.816 124.94 105.756 125 105.636 125H103.206C103.086 125 103.026 124.94 103.026 124.82L103.086 117.02L103.056 111.56H97.9263C97.8063 111.56 97.7463 111.5 97.7463 111.38V109.73ZM115.152 122L122.412 109.67C122.442 109.58 122.532 109.55 122.622 109.55H125.502C125.622 109.55 125.682 109.61 125.682 109.73L125.622 117.02L125.682 124.82C125.682 124.94 125.622 125 125.502 125H123.102C122.982 125 122.922 124.94 122.922 124.82L122.982 117.02L123.012 112.64L115.812 124.88C115.782 124.97 115.692 125 115.602 125H112.662C112.542 125 112.482 124.94 112.482 124.82L112.512 116.87L112.482 109.73C112.482 109.61 112.542 109.55 112.662 109.55H115.062C115.182 109.55 115.242 109.61 115.242 109.73L115.182 117.05L115.152 122ZM135.802 121.91L140.542 109.7C140.572 109.58 140.662 109.55 140.752 109.55H143.782C143.902 109.55 143.962 109.61 143.962 109.73L143.932 117.41L143.962 124.82C143.962 124.94 143.902 125 143.782 125H141.532C141.412 125 141.352 124.94 141.352 124.82V117.77L141.382 114.23L141.412 112.61L136.672 124.85C136.642 124.97 136.552 125 136.462 125H134.812C134.722 125 134.632 124.97 134.602 124.85L129.802 112.49L129.832 114.26L129.862 117.77L129.892 124.82C129.892 124.94 129.832 125 129.712 125H127.852C127.732 125 127.672 124.94 127.672 124.82L127.702 117.41L127.672 109.73C127.672 109.61 127.732 109.55 127.852 109.55H130.882C130.972 109.55 131.062 109.58 131.092 109.7L135.802 121.91Z" fill="black"/>
<path d="M60.0717 141.86V141.875C61.3767 142.16 61.9017 142.805 61.9017 143.825C61.9017 145.61 60.1317 146 58.7517 146H55.6017C55.5417 146 55.5117 145.97 55.5117 145.91L55.5267 142.01L55.5117 138.365C55.5117 138.305 55.5417 138.275 55.6017 138.275H58.7367C60.5967 138.275 61.6767 138.89 61.6767 140.18C61.6767 141.11 61.0617 141.635 60.0717 141.86ZM58.7067 139.22H56.8617V141.47H58.7217C59.6967 141.47 60.2967 141.14 60.2967 140.345C60.2967 139.595 59.6667 139.22 58.7067 139.22ZM56.8617 142.385V145.055H58.7217C59.8017 145.055 60.5217 144.65 60.5217 143.705C60.5217 142.79 59.6967 142.385 58.7217 142.385H56.8617ZM68.0679 139.445L68.0379 138.365C68.0379 138.305 68.0679 138.275 68.1279 138.275H69.3279C69.3879 138.275 69.4179 138.305 69.4179 138.365L69.3879 142.055L69.4179 145.91C69.4179 145.97 69.3879 146 69.3279 146H68.1279C68.0679 146 68.0379 145.97 68.0379 145.91L68.0679 144.785C67.5579 145.64 66.7179 146.15 65.6079 146.15C63.5229 146.15 62.4129 144.395 62.4129 142.16C62.4129 139.925 63.5979 138.125 65.6379 138.125C66.7179 138.125 67.5579 138.59 68.0679 139.445ZM65.9529 145.19C67.2879 145.19 68.0979 144.185 68.1129 142.205C68.1279 140.225 67.3479 139.085 65.9829 139.07C64.4979 139.055 63.8079 140.3 63.8079 142.055C63.8079 143.915 64.4979 145.205 65.9529 145.19ZM79.1086 142.265L79.0936 138.365C79.0936 138.305 79.1236 138.275 79.1836 138.275H80.3986C80.4586 138.275 80.4886 138.305 80.4886 138.365L80.4586 142.265L80.4886 145.91C80.4886 145.97 80.4586 146 80.3986 146H70.4986C70.4386 146 70.4086 145.97 70.4086 145.91L70.4236 142.265L70.4086 138.365C70.4086 138.305 70.4386 138.275 70.4986 138.275H71.7136C71.7736 138.275 71.8036 138.305 71.8036 138.365L71.7736 142.265L71.7886 144.995H74.7586L74.7736 142.265L74.7436 138.365C74.7436 138.305 74.7736 138.275 74.8336 138.275H76.0486C76.1086 138.275 76.1386 138.305 76.1386 138.365L76.1236 142.265L76.1386 144.995H79.0936L79.1086 142.265ZM87.2989 138.095C89.6089 138.095 90.8389 139.73 90.8389 142.16C90.8389 144.59 89.5339 146.18 87.2239 146.18C85.2139 146.18 83.9689 144.92 83.8189 143.195C83.8189 143.135 83.8489 143.105 83.9089 143.105H85.0339C85.0789 143.105 85.1239 143.135 85.1239 143.195C85.2289 144.455 85.9639 145.22 87.2389 145.22C88.6489 145.22 89.3689 144.215 89.4289 142.415H86.3539C86.3089 142.415 86.2639 142.385 86.2639 142.325V141.59C86.2639 141.53 86.2939 141.5 86.3539 141.5H89.3989C89.2489 139.94 88.5589 139.055 87.2689 139.055C86.1289 139.055 85.3939 139.715 85.2289 140.855C85.2139 140.915 85.1689 140.945 85.1239 140.945H84.0289C83.9689 140.945 83.9389 140.915 83.9389 140.87C84.0889 139.235 85.3339 138.095 87.2989 138.095ZM96.1717 138.335C96.2017 138.305 96.2467 138.275 96.2917 138.275H97.4767C97.5517 138.275 97.5817 138.32 97.5367 138.38L95.1817 141.635L97.8817 145.895C97.9117 145.955 97.8817 146 97.8217 146H96.4417C96.3967 146 96.3517 145.985 96.3367 145.94L95.6617 144.8L94.1317 142.355H92.9617L92.9917 145.91C92.9917 145.97 92.9617 146 92.9017 146H91.6867C91.6267 146 91.5967 145.97 91.5967 145.91L91.6117 142.01L91.5967 138.365C91.5967 138.305 91.6267 138.275 91.6867 138.275H92.9017C92.9617 138.275 92.9917 138.305 92.9917 138.365L92.9617 141.35H94.1317L96.1717 138.335ZM102.211 138.125C104.296 138.125 105.406 139.865 105.406 142.115C105.406 144.35 104.221 146.15 102.181 146.15C101.116 146.15 100.291 145.7 99.7656 144.86L99.7956 148.46C99.7956 148.52 99.7656 148.55 99.7056 148.55H98.4906C98.4306 148.55 98.4006 148.52 98.4006 148.46L98.4306 142.61L98.4006 138.365C98.4006 138.305 98.4306 138.275 98.4906 138.275H99.6906C99.7506 138.275 99.7806 138.305 99.7806 138.365L99.7506 139.505C100.276 138.65 101.116 138.125 102.211 138.125ZM101.836 145.19C103.321 145.19 104.011 143.96 104.011 142.22C104.011 140.36 103.321 139.085 101.866 139.085C100.531 139.085 99.7206 140.09 99.7056 142.07C99.6906 144.05 100.471 145.19 101.836 145.19ZM111.675 139.445L111.645 138.365C111.645 138.305 111.675 138.275 111.735 138.275H112.935C112.995 138.275 113.025 138.305 113.025 138.365L112.995 142.055L113.025 145.91C113.025 145.97 112.995 146 112.935 146H111.735C111.675 146 111.645 145.97 111.645 145.91L111.675 144.785C111.165 145.64 110.325 146.15 109.215 146.15C107.13 146.15 106.02 144.395 106.02 142.16C106.02 139.925 107.205 138.125 109.245 138.125C110.325 138.125 111.165 138.59 111.675 139.445ZM109.56 145.19C110.895 145.19 111.705 144.185 111.72 142.205C111.735 140.225 110.955 139.085 109.59 139.07C108.105 139.055 107.415 140.3 107.415 142.055C107.415 143.915 108.105 145.205 109.56 145.19ZM119.115 141.41L119.1 138.365C119.1 138.305 119.13 138.275 119.19 138.275H120.405C120.465 138.275 120.495 138.305 120.495 138.365L120.465 142.01L120.495 145.91C120.495 145.97 120.465 146 120.405 146H119.19C119.13 146 119.1 145.97 119.1 145.91L119.115 142.415H115.38L115.41 145.91C115.41 145.97 115.38 146 115.32 146H114.105C114.045 146 114.015 145.97 114.015 145.91L114.03 142.01L114.015 138.365C114.015 138.305 114.045 138.275 114.105 138.275H115.32C115.38 138.275 115.41 138.305 115.41 138.365L115.38 141.41H119.115ZM28.0679 159.18C25.7579 159.18 24.4529 157.59 24.4529 155.16C24.4529 152.73 25.7579 151.095 28.0979 151.095C30.0329 151.095 31.2029 152.205 31.3529 153.855C31.3679 153.915 31.3379 153.945 31.2779 153.945H30.1829C30.1379 153.945 30.0929 153.915 30.0779 153.855C29.8979 152.715 29.1929 152.055 28.0979 152.055C26.5829 152.07 25.8629 153.21 25.8629 155.145C25.8629 157.125 26.5829 158.22 28.0979 158.22C29.3129 158.235 30.0479 157.455 30.1679 156.195C30.1679 156.135 30.2129 156.105 30.2579 156.105H31.3679C31.4279 156.105 31.4579 156.135 31.4579 156.18C31.3079 157.92 30.0779 159.18 28.0679 159.18ZM38.3015 151.275C38.3465 151.275 38.3915 151.305 38.3915 151.365V155.085L38.4365 158.91C38.4365 158.97 38.4065 159 38.3465 159H37.1165C37.0565 159 37.0265 158.97 37.0265 158.91V155.085L36.9965 152.265H34.1465C34.1015 153.525 33.9965 155.595 33.9065 156.645C33.7565 158.235 33.4115 159.12 32.0465 159.12C31.8065 159.12 31.6115 159.09 31.4765 159.045C31.4165 159.03 31.4015 158.985 31.4015 158.94V158.175C31.4015 158.115 31.4315 158.085 31.5065 158.1C31.5815 158.115 31.7015 158.13 31.7915 158.13C32.4065 158.13 32.6165 157.77 32.7215 156.555C32.8265 155.46 32.9315 153.075 32.9765 151.365C32.9765 151.305 33.0215 151.275 33.0665 151.275H38.3015ZM40.7487 157.5L44.3787 151.335C44.3937 151.29 44.4387 151.275 44.4837 151.275H45.9237C45.9837 151.275 46.0137 151.305 46.0137 151.365L45.9837 155.01L46.0137 158.91C46.0137 158.97 45.9837 159 45.9237 159H44.7237C44.6637 159 44.6337 158.97 44.6337 158.91L44.6637 155.01L44.6787 152.82L41.0787 158.94C41.0637 158.985 41.0187 159 40.9737 159H39.5037C39.4437 159 39.4137 158.97 39.4137 158.91L39.4287 154.935L39.4137 151.365C39.4137 151.305 39.4437 151.275 39.5037 151.275H40.7037C40.7637 151.275 40.7937 151.305 40.7937 151.365L40.7637 155.025L40.7487 157.5ZM55.7086 155.265L55.6936 151.365C55.6936 151.305 55.7236 151.275 55.7836 151.275H56.9986C57.0586 151.275 57.0886 151.305 57.0886 151.365L57.0586 155.265L57.0886 158.91C57.0886 158.97 57.0586 159 56.9986 159H47.0986C47.0386 159 47.0086 158.97 47.0086 158.91L47.0236 155.265L47.0086 151.365C47.0086 151.305 47.0386 151.275 47.0986 151.275H48.3136C48.3736 151.275 48.4036 151.305 48.4036 151.365L48.3736 155.265L48.3886 157.995H51.3586L51.3736 155.265L51.3436 151.365C51.3436 151.305 51.3736 151.275 51.4336 151.275H52.6486C52.7086 151.275 52.7386 151.305 52.7386 151.365L52.7236 155.265L52.7386 157.995H55.6936L55.7086 155.265ZM62.6502 151.335C62.6802 151.305 62.7252 151.275 62.7702 151.275H63.9552C64.0302 151.275 64.0602 151.32 64.0152 151.38L61.6602 154.635L64.3602 158.895C64.3902 158.955 64.3602 159 64.3002 159H62.9202C62.8752 159 62.8302 158.985 62.8152 158.94L62.1402 157.8L60.6102 155.355H59.4402L59.4702 158.91C59.4702 158.97 59.4402 159 59.3802 159H58.1652C58.1052 159 58.0752 158.97 58.0752 158.91L58.0902 155.01L58.0752 151.365C58.0752 151.305 58.1052 151.275 58.1652 151.275H59.3802C59.4402 151.275 59.4702 151.305 59.4702 151.365L59.4402 154.35H60.6102L62.6502 151.335ZM67.6113 159.18C65.2713 159.18 63.9363 157.59 63.9363 155.16C63.9363 152.715 65.2713 151.095 67.6113 151.095C69.9663 151.095 71.2713 152.7 71.2713 155.13C71.2713 157.56 69.9663 159.18 67.6113 159.18ZM67.6113 158.22C69.1263 158.22 69.8613 157.11 69.8613 155.16C69.8613 153.21 69.1113 152.055 67.6113 152.055C66.0813 152.055 65.3313 153.21 65.3313 155.16C65.3313 157.11 66.0963 158.22 67.6113 158.22ZM76.0995 157.455L78.4695 151.35C78.4845 151.29 78.5295 151.275 78.5745 151.275H80.0895C80.1495 151.275 80.1795 151.305 80.1795 151.365L80.1645 155.205L80.1795 158.91C80.1795 158.97 80.1495 159 80.0895 159H78.9645C78.9045 159 78.8745 158.97 78.8745 158.91V155.385L78.8895 153.615L78.9045 152.805L76.5345 158.925C76.5195 158.985 76.4745 159 76.4295 159H75.6045C75.5595 159 75.5145 158.985 75.4995 158.925L73.0995 152.745L73.1145 153.63L73.1295 155.385L73.1445 158.91C73.1445 158.97 73.1145 159 73.0545 159H72.1245C72.0645 159 72.0345 158.97 72.0345 158.91L72.0495 155.205L72.0345 151.365C72.0345 151.305 72.0645 151.275 72.1245 151.275H73.6395C73.6845 151.275 73.7295 151.29 73.7445 151.35L76.0995 157.455ZM87.8763 157.455L90.2463 151.35C90.2613 151.29 90.3063 151.275 90.3513 151.275H91.8663C91.9263 151.275 91.9563 151.305 91.9563 151.365L91.9413 155.205L91.9563 158.91C91.9563 158.97 91.9263 159 91.8663 159H90.7413C90.6813 159 90.6513 158.97 90.6513 158.91V155.385L90.6663 153.615L90.6813 152.805L88.3113 158.925C88.2963 158.985 88.2513 159 88.2063 159H87.3813C87.3363 159 87.2913 158.985 87.2763 158.925L84.8763 152.745L84.8913 153.63L84.9063 155.385L84.9213 158.91C84.9213 158.97 84.8913 159 84.8313 159H83.9013C83.8413 159 83.8113 158.97 83.8113 158.91L83.8263 155.205L83.8113 151.365C83.8113 151.305 83.8413 151.275 83.9013 151.275H85.4163C85.4613 151.275 85.5063 151.29 85.5213 151.35L87.8763 157.455ZM98.3743 152.445L98.3443 151.365C98.3443 151.305 98.3743 151.275 98.4343 151.275H99.6343C99.6943 151.275 99.7243 151.305 99.7243 151.365L99.6943 155.055L99.7243 158.91C99.7243 158.97 99.6943 159 99.6343 159H98.4343C98.3743 159 98.3443 158.97 98.3443 158.91L98.3743 157.785C97.8643 158.64 97.0243 159.15 95.9143 159.15C93.8293 159.15 92.7193 157.395 92.7193 155.16C92.7193 152.925 93.9043 151.125 95.9443 151.125C97.0243 151.125 97.8643 151.59 98.3743 152.445ZM96.2593 158.19C97.5943 158.19 98.4043 157.185 98.4193 155.205C98.4343 153.225 97.6543 152.085 96.2893 152.07C94.8043 152.055 94.1143 153.3 94.1143 155.055C94.1143 156.915 94.8043 158.205 96.2593 158.19ZM107.315 151.275C107.36 151.275 107.405 151.305 107.405 151.365V155.085L107.45 158.91C107.45 158.97 107.42 159 107.36 159H106.13C106.07 159 106.04 158.97 106.04 158.91V155.085L106.01 152.265H103.16C103.115 153.525 103.01 155.595 102.92 156.645C102.77 158.235 102.425 159.12 101.06 159.12C100.82 159.12 100.625 159.09 100.49 159.045C100.43 159.03 100.415 158.985 100.415 158.94V158.175C100.415 158.115 100.445 158.085 100.52 158.1C100.595 158.115 100.715 158.13 100.805 158.13C101.42 158.13 101.63 157.77 101.735 156.555C101.84 155.46 101.945 153.075 101.99 151.365C101.99 151.305 102.035 151.275 102.08 151.275H107.315ZM111.878 158.22C113.018 158.22 113.708 157.575 113.933 156.39C113.948 156.345 113.993 156.315 114.038 156.315H115.178C115.238 156.315 115.268 156.345 115.253 156.405C115.028 158.01 113.858 159.18 111.863 159.18C109.463 159.18 108.173 157.515 108.173 155.16C108.173 152.745 109.553 151.095 111.788 151.095C114.038 151.095 115.358 152.655 115.388 155.22C115.388 155.28 115.358 155.31 115.298 155.31H109.538C109.583 157.215 110.363 158.22 111.878 158.22ZM111.803 152.04C110.528 152.04 109.778 152.895 109.583 154.38H113.903C113.858 153.105 113.168 152.04 111.803 152.04ZM121.254 154.41L121.239 151.365C121.239 151.305 121.269 151.275 121.329 151.275H122.544C122.604 151.275 122.634 151.305 122.634 151.365L122.604 155.01L122.634 158.91C122.634 158.97 122.604 159 122.544 159H121.329C121.269 159 121.239 158.97 121.239 158.91L121.254 155.415H117.519L117.549 158.91C117.549 158.97 117.519 159 117.459 159H116.244C116.184 159 116.154 158.97 116.154 158.91L116.169 155.01L116.154 151.365C116.154 151.305 116.184 151.275 116.244 151.275H117.459C117.519 151.275 117.549 151.305 117.549 151.365L117.519 154.41H121.254ZM124.922 151.26C124.982 151.26 125.012 151.29 125.012 151.35L124.997 154.185H126.332C128.432 154.185 129.602 154.92 129.602 156.57C129.602 158.265 128.402 159 126.332 159H123.707C123.647 159 123.617 158.97 123.617 158.91L123.632 155.205L123.617 151.35C123.617 151.29 123.647 151.26 123.707 151.26H124.922ZM124.997 155.13V158.055H126.332C127.502 158.055 128.207 157.665 128.207 156.6C128.207 155.625 127.607 155.13 126.332 155.13H124.997ZM134.893 151.335C134.923 151.305 134.968 151.275 135.013 151.275H136.198C136.273 151.275 136.303 151.32 136.258 151.38L133.903 154.635L136.603 158.895C136.633 158.955 136.603 159 136.543 159H135.163C135.118 159 135.073 158.985 135.058 158.94L134.383 157.8L132.853 155.355H131.683L131.713 158.91C131.713 158.97 131.683 159 131.623 159H130.408C130.348 159 130.318 158.97 130.318 158.91L130.333 155.01L130.318 151.365C130.318 151.305 130.348 151.275 130.408 151.275H131.623C131.683 151.275 131.713 151.305 131.713 151.365L131.683 154.35H132.853L134.893 151.335ZM138.457 157.5L142.087 151.335C142.102 151.29 142.147 151.275 142.192 151.275H143.632C143.692 151.275 143.722 151.305 143.722 151.365L143.692 155.01L143.722 158.91C143.722 158.97 143.692 159 143.632 159H142.432C142.372 159 142.342 158.97 142.342 158.91L142.372 155.01L142.387 152.82L138.787 158.94C138.772 158.985 138.727 159 138.682 159H137.212C137.152 159 137.122 158.97 137.122 158.91L137.137 154.935L137.122 151.365C137.122 151.305 137.152 151.275 137.212 151.275H138.412C138.472 151.275 138.502 151.305 138.502 151.365L138.472 155.025L138.457 157.5ZM148.017 150.63C149.442 150.63 150.297 149.805 150.297 148.59H149.187C149.172 149.31 148.782 149.805 148.032 149.805C147.267 149.805 146.892 149.31 146.892 148.59H145.797C145.797 149.805 146.637 150.63 148.017 150.63ZM146.052 157.5L149.682 151.335C149.697 151.29 149.742 151.275 149.787 151.275H151.227C151.287 151.275 151.317 151.305 151.317 151.365L151.287 155.01L151.317 158.91C151.317 158.97 151.287 159 151.227 159H150.027C149.967 159 149.937 158.97 149.937 158.91L149.967 155.01L149.982 152.82L146.382 158.94C146.367 158.985 146.322 159 146.277 159H144.807C144.747 159 144.717 158.97 144.717 158.91L144.732 154.935L144.717 151.365C144.717 151.305 144.747 151.275 144.807 151.275H146.007C146.067 151.275 146.097 151.305 146.097 151.365L146.067 155.025L146.052 157.5Z" fill="black"/>
</svg>
